<svg width="16" height="16" viewBox="0 0 18 18" fill="none" xmlns="http://www.w3.org/2000/svg">
<path fill-rule="evenodd" clip-rule="evenodd" d="M2.46967 2.46967C2.61032 2.32902 2.80109 2.25 3 2.25H9.75C9.94891 2.25 10.1397 2.32902 10.2803 2.46967C10.421 2.61032 10.5 2.80109 10.5 3V3.75C10.5 4.16421 10.8358 4.5 11.25 4.5C11.6642 4.5 12 4.16421 12 3.75V3C12 2.40326 11.7629 1.83097 11.341 1.40901C10.919 0.987053 10.3467 0.75 9.75 0.75H3C2.40326 0.75 1.83097 0.987053 1.40901 1.40901C0.987053 1.83097 0.75 2.40326 0.75 3V9.75C0.75 10.3467 0.987053 10.919 1.40901 11.341C1.83097 11.7629 2.40326 12 3 12H3.75C4.16421 12 4.5 11.6642 4.5 11.25C4.5 10.8358 4.16421 10.5 3.75 10.5H3C2.80109 10.5 2.61032 10.421 2.46967 10.2803C2.32902 10.1397 2.25 9.94891 2.25 9.75V3C2.25 2.80109 2.32902 2.61032 2.46967 2.46967ZM8.25 6C7.65326 6 7.08097 6.23705 6.65901 6.65901C6.23705 7.08097 6 7.65326 6 8.25V15C6 15.5967 6.23705 16.169 6.65901 16.591C7.08097 17.0129 7.65326 17.25 8.25 17.25H15C15.5967 17.25 16.169 17.0129 16.591 16.591C17.0129 16.169 17.25 15.5967 17.25 15V8.25C17.25 7.65326 17.0129 7.08097 16.591 6.65901C16.169 6.23705 15.5967 6 15 6H8.25ZM7.71967 7.71967C7.86032 7.57902 8.05109 7.5 8.25 7.5H15C15.1989 7.5 15.3897 7.57902 15.5303 7.71967C15.671 7.86032 15.75 8.05109 15.75 8.25V15C15.75 15.1989 15.671 15.3897 15.5303 15.5303C15.3897 15.671 15.1989 15.75 15 15.75H8.25C8.05109 15.75 7.86032 15.671 7.71967 15.5303C7.57902 15.3897 7.5 15.1989 7.5 15V8.25C7.5 8.05109 7.57902 7.86032 7.71967 7.71967Z" fill="#545F71"/>
</svg>
