<svg width="16" height="16" viewBox="0 0 16 16" fill="none" xmlns="http://www.w3.org/2000/svg">
  <path fill-rule="evenodd" clip-rule="evenodd"
    d="M8.00004 1.33331C8.36823 1.33331 8.66671 1.63179 8.66671 1.99998V8.3905L10.862 6.19524C11.1223 5.93489 11.5444 5.93489 11.8048 6.19524C12.0651 6.45559 12.0651 6.8777 11.8048 7.13805L8.47145 10.4714C8.2111 10.7317 7.78899 10.7317 7.52864 10.4714L4.1953 7.13805C3.93495 6.8777 3.93495 6.45559 4.1953 6.19524C4.45565 5.93489 4.87776 5.93489 5.13811 6.19524L7.33337 8.3905V1.99998C7.33337 1.63179 7.63185 1.33331 8.00004 1.33331ZM2.00004 9.33331C2.36823 9.33331 2.66671 9.63179 2.66671 9.99998V12.6666C2.66671 12.8435 2.73695 13.013 2.86197 13.1381C2.98699 13.2631 3.15656 13.3333 3.33337 13.3333H12.6667C12.8435 13.3333 13.0131 13.2631 13.1381 13.1381C13.2631 13.013 13.3334 12.8435 13.3334 12.6666V9.99998C13.3334 9.63179 13.6319 9.33331 14 9.33331C14.3682 9.33331 14.6667 9.63179 14.6667 9.99998V12.6666C14.6667 13.1971 14.456 13.7058 14.0809 14.0809C13.7058 14.4559 13.1971 14.6666 12.6667 14.6666H3.33337C2.80294 14.6666 2.29423 14.4559 1.91916 14.0809C1.54409 13.7058 1.33337 13.1971 1.33337 12.6666V9.99998C1.33337 9.63179 1.63185 9.33331 2.00004 9.33331Z"
    fill="currentColor" />
</svg>
