<svg width="16" height="16" viewBox="0 0 18 18" fill="none" xmlns="http://www.w3.org/2000/svg">
<path fill-rule="evenodd" clip-rule="evenodd" d="M1.5 1.5C1.08579 1.5 0.75 1.83579 0.75 2.25C0.75 2.66421 1.08579 3 1.5 3H6V15.75C6 16.1642 6.33579 16.5 6.75 16.5C7.16421 16.5 7.5 16.1642 7.5 15.75V3H12C12.4142 3 12.75 2.66421 12.75 2.25C12.75 1.83579 12.4142 1.5 12 1.5H1.5ZM11.25 6.75C10.8358 6.75 10.5 7.08579 10.5 7.5C10.5 7.91421 10.8358 8.25 11.25 8.25H13.125V15.75C13.125 16.1642 13.4608 16.5 13.875 16.5C14.2892 16.5 14.625 16.1642 14.625 15.75V8.25H16.5C16.9142 8.25 17.25 7.91421 17.25 7.5C17.25 7.08579 16.9142 6.75 16.5 6.75H11.25Z" fill="#545F71"/>
</svg>
