<svg width="16" height="16" viewBox="0 0 18 18" fill="none" xmlns="http://www.w3.org/2000/svg">
<path fill-rule="evenodd" clip-rule="evenodd" d="M3.75 1.5C3.15326 1.5 2.58097 1.73705 2.15901 2.15901C1.73705 2.58097 1.5 3.15326 1.5 3.75V14.25C1.5 14.8467 1.73705 15.419 2.15901 15.841C2.58097 16.2629 3.15326 16.5 3.75 16.5H4.49927C4.49976 16.5 4.50025 16.5 4.50074 16.5H14.25C14.8467 16.5 15.419 16.2629 15.841 15.841C16.2629 15.419 16.5 14.8467 16.5 14.25V3.75C16.5 3.15326 16.2629 2.58097 15.841 2.15901C15.419 1.73705 14.8467 1.5 14.25 1.5H3.75ZM6.31066 15H14.25C14.4489 15 14.6397 14.921 14.7803 14.7803C14.921 14.6397 15 14.4489 15 14.25V10.8107L12.75 8.56066L6.31066 15ZM15 8.68934V3.75C15 3.55109 14.921 3.36032 14.7803 3.21967C14.6397 3.07902 14.4489 3 14.25 3H3.75C3.55109 3 3.36032 3.07902 3.21967 3.21967C3.07902 3.36032 3 3.55109 3 3.75V14.25C3 14.4489 3.07902 14.6397 3.21967 14.7803C3.36032 14.921 3.55109 15 3.75 15H4.18934L12.2197 6.96967C12.5126 6.67678 12.9874 6.67678 13.2803 6.96967L15 8.68934ZM7.125 4.5C6.62772 4.5 6.15081 4.69754 5.79918 5.04918C5.44754 5.40081 5.25 5.87772 5.25 6.375C5.25 6.87228 5.44754 7.3492 5.79918 7.70083C6.15081 8.05246 6.62772 8.25 7.125 8.25C7.62228 8.25 8.0992 8.05246 8.45083 7.70083C8.80246 7.3492 9 6.87228 9 6.375C9 5.87772 8.80246 5.40081 8.45083 5.04918C8.0992 4.69754 7.62228 4.5 7.125 4.5ZM6.85984 6.10984C6.93016 6.03951 7.02554 6 7.125 6C7.22446 6 7.31984 6.03951 7.39017 6.10984C7.46049 6.18016 7.5 6.27554 7.5 6.375C7.5 6.47446 7.46049 6.56984 7.39017 6.64017C7.31984 6.71049 7.22446 6.75 7.125 6.75C7.02554 6.75 6.93016 6.71049 6.85984 6.64017C6.78951 6.56984 6.75 6.47446 6.75 6.375C6.75 6.27554 6.78951 6.18016 6.85984 6.10984Z" fill="#545F71"/>
</svg>
