<svg width="16" height="16" viewBox="0 0 16 16" fill="none" xmlns="http://www.w3.org/2000/svg">
<path fill-rule="evenodd" clip-rule="evenodd" d="M8 2.66666C8.36819 2.66666 8.66667 2.96513 8.66667 3.33332V7.33332H12.6667C13.0349 7.33332 13.3333 7.6318 13.3333 7.99999C13.3333 8.36818 13.0349 8.66666 12.6667 8.66666H8.66667V12.6667C8.66667 13.0348 8.36819 13.3333 8 13.3333C7.63181 13.3333 7.33334 13.0348 7.33334 12.6667V8.66666H3.33334C2.96515 8.66666 2.66667 8.36818 2.66667 7.99999C2.66667 7.6318 2.96515 7.33332 3.33334 7.33332H7.33334V3.33332C7.33334 2.96513 7.63181 2.66666 8 2.66666Z" fill="#2F80ED"/>
</svg>
